<svg xmlns="http://www.w3.org/2000/svg" width="275.301" height="275.281" viewBox="0 0 275.301 275.281"><g transform="translate(0 0)"><g transform="translate(0 0)"><rect width="275.301" height="17.207" fill="#edeeef"/><rect width="275.301" height="17.207" transform="translate(0 258.073)" fill="#edeeef"/></g></g><g transform="translate(47.103 64.766)"><path d="M45.691,52.056h18.8q21.488,0,28.3,7.572T99.613,90.38V151.7q0,23.193-6.715,30.758t-28.4,7.569h-18.8Zm17.846,14.2V175.826h3.645q8.823,0,11.611-2.968t2.782-12.164V81.39q0-9.194-2.782-12.162t-11.611-2.97Z" transform="translate(-45.691 -49.754)" fill="#edeeef"/><path d="M70.915,52.056H88.761V175.443h25.33v14.581H70.915Z" transform="translate(3.344 -49.754)" fill="#edeeef"/><path d="M141.229,81.017V91.38H123.386v-9.4q0-9.212-1.537-12.953t-5.95-3.742q-5.564,0-7.2,4.313t-1.631,15.035v75.48q0,10.916,1.537,15.135t6.909,4.213a6.2,6.2,0,0,0,6.138-3.715q1.727-3.714,1.728-12.106V151.248h17.843v12.609q0,16.622-5.543,23.21t-20.646,6.589q-15.3,0-20.652-8.334t-5.352-28.651V88.065q0-20.309,5.47-28.551t21.014-8.24q14.767,0,20.243,6.621t5.467,23.122" transform="translate(38.57 -51.274)" fill="#edeeef"/></g></svg>