<svg xmlns="http://www.w3.org/2000/svg" xmlns:xlink="http://www.w3.org/1999/xlink" width="275.328" height="275.287" viewBox="0 0 275.328 275.287"><defs><clipPath id="a"><rect width="275.328" height="275.287" transform="translate(0 0)" fill="none"/></clipPath></defs><g clip-path="url(#a)"><path d="M17.036,23.4h18.8q21.492,0,28.306,7.572t6.815,30.753v61.32q0,23.193-6.715,30.758t-28.406,7.569h-18.8ZM34.882,37.6V147.17h3.645q8.823,0,11.611-2.968t2.782-12.164v-79.3q0-9.194-2.782-12.161T38.527,37.6Z" transform="translate(33.117 45.489)" fill="#464749"/><path d="M42.26,23.4H60.106V146.788h25.33v14.581H42.26Z" transform="translate(82.151 45.49)" fill="#464749"/><path d="M112.573,52.362V62.725H94.727v-9.4q0-9.212-1.537-12.953t-5.947-3.742q-5.568,0-7.2,4.313T78.418,55.974v75.48q0,10.916,1.537,15.135t6.907,4.213A6.2,6.2,0,0,0,93,147.087q1.722-3.718,1.725-12.106V122.593h17.846V135.2q0,16.622-5.543,23.207T86.384,165q-15.3,0-20.655-8.334T60.38,128.016V59.41q0-20.309,5.47-28.551t21.011-8.24q14.771,0,20.246,6.618t5.467,23.125" transform="translate(117.376 43.971)" fill="#464749"/><rect width="275.301" height="17.207" transform="translate(0 0)" fill="#464749"/><rect width="275.301" height="17.207" transform="translate(0 258.073)" fill="#464749"/></g></svg>