<?xml version="1.0" standalone="no"?>
<!DOCTYPE svg PUBLIC "-//W3C//DTD SVG 20010904//EN"
 "http://www.w3.org/TR/2001/REC-SVG-20010904/DTD/svg10.dtd">
<svg version="1.0" xmlns="http://www.w3.org/2000/svg"
 width="700.000000pt" height="700.000000pt" viewBox="0 0 700.000000 700.000000"
 preserveAspectRatio="xMidYMid meet">
<metadata>
Created by potrace 1.14, written by Peter Selinger 2001-2017
</metadata>
<g transform="translate(0.000000,700.000000) scale(0.100000,-0.100000)"
fill="#000000" stroke="none">
<path d="M2 6783 l3 -218 3495 0 3495 0 3 218 2 217 -3500 0 -3500 0 2 -217z"/>
<path d="M1805 5293 c-195 -33 -307 -102 -379 -234 -34 -63 -69 -163 -80 -230
-3 -19 -7 -43 -10 -54 -24 -123 -26 -212 -27 -1275 0 -950 2 -1101 16 -1204
57 -413 174 -552 505 -602 57 -9 262 -5 331 6 222 35 338 114 404 277 25 63
27 71 49 189 15 85 19 155 20 409 l1 190 -223 0 c-123 0 -225 -2 -227 -6 -2
-3 -5 -107 -6 -231 -2 -315 -24 -409 -109 -457 -74 -41 -203 -20 -242 41 -30
45 -44 108 -55 233 -8 108 -8 2209 1 2309 15 171 46 244 120 277 55 25 141 25
183 -1 76 -46 93 -113 99 -395 3 -121 6 -226 7 -234 2 -13 92 -15 393 -12 l60
1 -2 209 c-2 181 -9 266 -30 389 -19 108 -77 224 -141 283 -43 39 -143 93
-194 103 -13 3 -35 8 -49 11 -95 22 -309 26 -415 8z"/>
<path d="M4945 5299 c-140 -23 -197 -43 -281 -98 -121 -79 -193 -191 -238
-367 -22 -89 -28 -162 -30 -354 -2 -209 7 -300 40 -400 40 -119 97 -216 310
-525 301 -436 351 -510 394 -589 72 -130 75 -150 75 -431 0 -271 -5 -328 -36
-392 -30 -61 -70 -86 -146 -91 -103 -7 -151 20 -182 102 -25 69 -30 124 -31
371 l0 210 -230 0 c-151 1 -230 -3 -231 -10 -4 -53 -1 -400 5 -470 29 -361
157 -513 471 -560 135 -20 362 1 469 42 172 68 295 217 347 421 30 123 36 193
37 437 1 283 -13 366 -88 521 -41 84 -167 289 -205 331 -5 6 -46 64 -90 127
-44 64 -133 192 -198 284 -124 175 -217 324 -217 346 0 7 -3 16 -7 20 -4 3 -8
12 -9 19 -1 7 -7 32 -13 57 -17 73 -8 473 13 537 26 80 80 119 164 116 12 0
35 -1 52 -2 42 -2 95 -51 109 -103 18 -69 19 -92 20 -320 l1 -218 224 0 c170
0 225 3 228 13 9 26 0 426 -12 502 -30 200 -103 329 -225 400 -54 32 -138 61
-206 70 -69 10 -232 12 -284 4z"/>
<path d="M2830 5065 c0 -141 3 -185 13 -186 6 0 102 -1 212 -1 l200 -1 0
-1566 0 -1566 228 -3 227 -2 1 22 c0 13 1 719 2 1569 l0 1546 196 1 c108 0
203 1 212 1 15 1 17 22 17 186 l-1 185 -653 0 -654 0 0 -185z"/>
<path d="M0 219 l0 -219 3500 0 3500 0 0 219 0 218 -3500 0 -3500 0 0 -218z"/>
</g>
</svg>
